<?xml version="1.0" encoding="UTF-8"?>
<!DOCTYPE svg PUBLIC "-//W3C//DTD SVG 1.1//EN" "http://www.w3.org/Graphics/SVG/1.1/DTD/svg11.dtd">
<!-- Creator: CorelDRAW 2021 (64-Bit) -->
<svg xmlns="http://www.w3.org/2000/svg" xml:space="preserve" width="162.932mm" height="189.555mm" version="1.1" style="shape-rendering:geometricPrecision; text-rendering:geometricPrecision; image-rendering:optimizeQuality; fill-rule:evenodd; clip-rule:evenodd"
viewBox="0 0 2120.15 2466.57"
 xmlns:xlink="http://www.w3.org/1999/xlink"
 xmlns:xodm="http://www.corel.com/coreldraw/odm/2003">
 <defs>
  <style type="text/css">
   <![CDATA[
    .fil0 {fill:#FEFEFE}
    .fil1 {fill:#2B2A29;fill-rule:nonzero}
   ]]>
  </style>
 </defs>
 <g id="Warstwa_x0020_1">
  <metadata id="CorelCorpID_0Corel-Layer"/>
  <rect class="fil0" x="-0" y="-0" width="2120.15" height="2466.57"/>
  <path class="fil1" d="M604.63 1847.44c1.46,1.21 3.29,1.54 5.49,0.98l17.93 -8.05c2.56,-1.14 4.36,-2.85 5.4,-5.13 1.04,-2.28 1.01,-4.31 -0.09,-6.11 -3.66,-5.66 -9.21,-9.52 -16.65,-11.58 -7.44,-2.07 -15.86,-1.91 -25.25,0.49 -12.56,3.2 -22.81,9.35 -30.74,18.45 -7.93,9.1 -11.89,19.32 -11.89,30.66 0,4.88 0.85,9.08 2.56,12.61 1.71,3.53 3.75,6.27 6.13,8.23 2.38,1.96 5.61,3.54 9.7,4.76 4.09,1.22 7.62,2.02 10.61,2.42 2.99,0.4 6.86,0.72 11.62,0.97 0.24,0.06 0.55,0.07 0.91,0.04 0.37,-0.03 0.64,-0.04 0.82,-0.03l0.82 0.07c6.34,0.33 11.19,0.96 14.55,1.87 3.35,0.91 5.03,2.71 5.03,5.4 0,2.81 -1.52,5.48 -4.57,8.03 -3.05,2.55 -6.83,4.39 -11.35,5.54 -8.66,2.21 -14.7,1.06 -18.11,-3.44 -1.34,-1.49 -3.11,-1.95 -5.31,-1.39l-18.48 8.37c-2.56,1.14 -4.36,2.85 -5.4,5.13 -1.04,2.28 -1.01,4.31 0.09,6.11 4.03,6.54 10.22,10.97 18.57,13.29 8.36,2.32 17.84,2.13 28.45,-0.57 13.78,-3.51 24.98,-9.96 33.58,-19.35 8.6,-9.39 12.9,-20.12 12.9,-32.2 0,-5.86 -1.07,-10.77 -3.2,-14.74 -2.14,-3.97 -5.18,-6.88 -9.15,-8.74 -3.96,-1.86 -7.69,-3.13 -11.16,-3.83 -3.48,-0.7 -7.59,-1.12 -12.35,-1.24 -1.34,-0.15 -3.39,-0.27 -6.13,-0.36 -2.74,-0.09 -4.73,-0.17 -5.95,-0.22 -1.22,-0.05 -2.81,-0.2 -4.76,-0.43 -1.95,-0.23 -3.39,-0.51 -4.3,-0.82 -0.91,-0.32 -1.89,-0.71 -2.93,-1.18 -1.04,-0.47 -1.77,-1.07 -2.2,-1.82 -0.43,-0.75 -0.64,-1.61 -0.64,-2.58 0,-2.56 1.22,-4.95 3.66,-7.15 2.44,-2.21 5.49,-3.78 9.15,-4.71 5.37,-1.37 9.58,-0.61 12.63,2.27zm156.51 52.89c2.44,-0.62 4.51,-2 6.22,-4.15 1.71,-2.14 2.56,-4.43 2.56,-6.87l0 -10.43c0,-2.44 -0.85,-4.27 -2.56,-5.48 -1.71,-1.21 -3.78,-1.51 -6.22,-0.89l-48.49 12.36 52.52 -80.35c2.81,-4.37 4.21,-8.76 4.21,-13.15l0 -9.88c0,-1.95 -0.64,-3.41 -1.92,-4.36 -1.28,-0.96 -2.9,-1.18 -4.85,-0.69l-82.89 21.12c-2.44,0.62 -4.51,1.97 -6.22,4.06 -1.71,2.08 -2.56,4.4 -2.56,6.97l0 10.43c0,2.44 0.85,4.3 2.56,5.57 1.71,1.27 3.78,1.6 6.22,0.98l47.39 -12.08 -52.52 80.17c-2.81,4.13 -4.21,8.51 -4.21,13.15l0 9.88c0,1.95 0.64,3.41 1.92,4.36 1.28,0.96 2.9,1.18 4.85,0.69l83.99 -21.4zm38.85 -124.63l0 10.43c0,2.44 0.85,4.3 2.56,5.57 1.71,1.27 3.78,1.6 6.22,0.98l27.63 -7.04 0 86.73c0,2.44 0.85,4.3 2.56,5.57 1.71,1.27 3.78,1.6 6.22,0.98l12.81 -3.26c2.44,-0.62 4.51,-2 6.22,-4.15 1.71,-2.14 2.56,-4.43 2.56,-6.87l0 -86.73 27.63 -7.04c2.56,-0.65 4.67,-2.04 6.31,-4.17 1.65,-2.13 2.47,-4.41 2.47,-6.85l0 -10.43c0,-2.56 -0.82,-4.46 -2.47,-5.68 -1.65,-1.23 -3.75,-1.52 -6.31,-0.86l-85.64 21.82c-2.44,0.62 -4.51,1.97 -6.22,4.06 -1.71,2.08 -2.56,4.4 -2.56,6.97zm137.84 -43.91c-2.56,0.65 -4.24,1.78 -5.03,3.39 -0.79,1.6 -0.52,3.27 0.82,5.01l41.17 54.83 0 42.09c0,2.44 0.82,4.3 2.47,5.59 1.65,1.29 3.75,1.61 6.31,0.95l12.81 -3.26c2.44,-0.62 4.51,-2 6.22,-4.15 1.71,-2.14 2.56,-4.43 2.56,-6.87l0 -43.18 41.72 -74.86c1.34,-2.42 1.65,-4.23 0.91,-5.45 -0.73,-1.22 -2.38,-1.5 -4.94,-0.85l-17.02 4.34c-2.56,0.65 -5.12,2.01 -7.69,4.06 -2.56,2.06 -4.45,4.34 -5.67,6.84l-22.69 42.38 -21.59 -30.91c-1.22,-1.88 -3.11,-3.23 -5.67,-4.04 -2.56,-0.81 -5.06,-0.91 -7.5,-0.28l-17.2 4.38zm145.89 -37.18c-2.56,0.65 -4.42,1.92 -5.58,3.8 -1.16,1.88 -1.31,3.93 -0.46,6.15l35.86 98.27c0.73,2.01 2.07,3.5 4.03,4.46 1.95,0.97 4.09,1.15 6.4,0.56l9.15 -2.33c2.32,-0.59 4.45,-1.87 6.4,-3.83 1.95,-1.96 3.23,-4.12 3.84,-6.47l19.03 -67.06 18.85 57.41c0.61,2.04 1.89,3.54 3.84,4.51 1.95,0.97 4.09,1.15 6.4,0.56l9.15 -2.33c2.32,-0.59 4.45,-1.87 6.4,-3.83 1.95,-1.96 3.29,-4.13 4.03,-6.52l35.86 -116.55c0.85,-2.66 0.7,-4.63 -0.46,-5.92 -1.16,-1.29 -3.02,-1.61 -5.58,-0.96l-13.36 3.4c-2.56,0.65 -4.91,2.04 -7.04,4.17 -2.14,2.13 -3.57,4.51 -4.3,7.13l-19.58 70.31 -19.4 -61.12c-0.61,-2.04 -1.92,-3.54 -3.93,-4.49 -2.01,-0.95 -4.12,-1.15 -6.31,-0.59l-9.15 2.33c-2.32,0.59 -4.45,1.87 -6.4,3.83 -1.95,1.96 -3.23,4.12 -3.84,6.47l-19.4 71 -19.76 -60.29c-0.73,-2.25 -2.17,-3.9 -4.3,-4.94 -2.13,-1.04 -4.48,-1.24 -7.04,-0.58l-13.36 3.4zm195.67 -41.08l0 105.95c0,2.44 0.82,4.3 2.47,5.59 1.65,1.29 3.75,1.61 6.31,0.95l11.53 -2.94c2.44,-0.62 4.51,-2 6.22,-4.15 1.71,-2.14 2.56,-4.43 2.56,-6.87l0 -62.58 50.32 51.95c1.46,1.46 3.48,2.5 6.04,3.13 2.56,0.63 5,0.65 7.32,0.06l9.88 -2.52c2.56,-0.65 4.67,-2.04 6.31,-4.17 1.65,-2.13 2.47,-4.41 2.47,-6.85l0 -105.95c0,-2.56 -0.82,-4.46 -2.47,-5.68 -1.65,-1.23 -3.75,-1.52 -6.31,-0.86l-11.53 2.94c-2.56,0.65 -4.67,2.01 -6.31,4.08 -1.65,2.07 -2.47,4.38 -2.47,6.94l0 62.76 -50.32 -52.14c-1.46,-1.46 -3.48,-2.5 -6.04,-3.13 -2.56,-0.63 -5,-0.65 -7.32,-0.06l-9.88 2.52c-2.56,0.65 -4.67,2.01 -6.31,4.08 -1.65,2.07 -2.47,4.38 -2.47,6.94zm149.92 -46.99c-2.56,0.65 -4.24,1.78 -5.03,3.39 -0.79,1.61 -0.52,3.27 0.82,5.01l41.17 54.83 0 42.09c0,2.44 0.82,4.3 2.47,5.59 1.65,1.29 3.75,1.61 6.31,0.95l12.81 -3.26c2.44,-0.62 4.51,-2 6.22,-4.15 1.71,-2.14 2.56,-4.43 2.56,-6.87l0 -43.18 41.72 -74.86c1.34,-2.42 1.65,-4.23 0.91,-5.45 -0.73,-1.22 -2.38,-1.5 -4.94,-0.84l-17.02 4.34c-2.56,0.65 -5.12,2.01 -7.69,4.06 -2.56,2.06 -4.45,4.34 -5.67,6.84l-22.69 42.38 -21.59 -30.91c-1.22,-1.88 -3.11,-3.23 -5.67,-4.04 -2.56,-0.81 -5.06,-0.91 -7.5,-0.28l-17.2 4.38zm-799.68 396.29c-3.22,0.82 -5.57,2.42 -7.02,4.78 -1.46,2.37 -1.65,4.95 -0.58,7.75l45.14 123.69c0.92,2.53 2.61,4.4 5.07,5.62 2.46,1.22 5.14,1.45 8.06,0.71l11.51 -2.93c2.92,-0.74 5.6,-2.35 8.06,-4.82 2.46,-2.47 4.07,-5.18 4.84,-8.14l23.95 -84.41 23.72 72.26c0.77,2.57 2.38,4.46 4.84,5.68 2.46,1.22 5.14,1.45 8.06,0.71l11.51 -2.93c2.92,-0.74 5.6,-2.35 8.06,-4.82 2.46,-2.47 4.15,-5.2 5.07,-8.2l45.14 -146.69c1.07,-3.35 0.88,-5.83 -0.58,-7.45 -1.46,-1.63 -3.8,-2.03 -7.02,-1.2l-16.81 4.28c-3.22,0.82 -6.18,2.57 -8.87,5.25 -2.69,2.68 -4.49,5.67 -5.41,8.98l-24.64 88.5 -24.41 -76.92c-0.77,-2.57 -2.42,-4.45 -4.95,-5.65 -2.53,-1.2 -5.18,-1.44 -7.95,-0.74l-11.51 2.93c-2.92,0.74 -5.6,2.35 -8.06,4.82 -2.46,2.47 -4.07,5.18 -4.84,8.14l-24.41 89.36 -24.87 -75.88c-0.92,-2.84 -2.72,-4.91 -5.41,-6.22 -2.69,-1.31 -5.64,-1.56 -8.87,-0.74l-16.81 4.28zm249.26 -63.52c-3.22,0.82 -5.34,2.24 -6.33,4.26 -1,2.02 -0.65,4.12 1.04,6.3l51.82 69.01 0 52.97c0,3.07 1.04,5.42 3.11,7.04 2.07,1.62 4.72,2.02 7.95,1.2l16.12 -4.11c3.07,-0.78 5.68,-2.52 7.83,-5.22 2.15,-2.7 3.22,-5.58 3.22,-8.65l0 -54.35 52.51 -94.22c1.69,-3.04 2.07,-5.33 1.15,-6.86 -0.92,-1.53 -2.99,-1.89 -6.22,-1.07l-21.42 5.46c-3.22,0.82 -6.45,2.53 -9.67,5.12 -3.22,2.59 -5.6,5.46 -7.14,8.61l-28.56 53.34 -27.18 -38.9c-1.54,-2.37 -3.92,-4.07 -7.14,-5.09 -3.22,-1.02 -6.37,-1.14 -9.44,-0.36l-21.65 5.52zm180.63 -34.97l0 133.35c0,3.07 1.04,5.42 3.11,7.04 2.07,1.62 4.72,2.02 7.95,1.2l14.51 -3.7c3.07,-0.78 5.68,-2.52 7.83,-5.22 2.15,-2.7 3.22,-5.58 3.22,-8.65l0 -78.76 63.33 65.39c1.84,1.83 4.38,3.15 7.6,3.93 3.22,0.79 6.3,0.81 9.21,0.07l12.44 -3.17c3.22,-0.82 5.87,-2.57 7.95,-5.25 2.07,-2.68 3.11,-5.55 3.11,-8.62l0 -133.35c0,-3.22 -1.04,-5.61 -3.11,-7.15 -2.07,-1.54 -4.72,-1.91 -7.95,-1.09l-14.51 3.7c-3.22,0.82 -5.87,2.53 -7.95,5.13 -2.07,2.6 -3.11,5.51 -3.11,8.74l0 78.99 -63.33 -65.62c-1.84,-1.83 -4.38,-3.15 -7.6,-3.93 -3.22,-0.79 -6.29,-0.82 -9.21,-0.07l-12.44 3.17c-3.22,0.82 -5.87,2.53 -7.95,5.13 -2.07,2.6 -3.11,5.51 -3.11,8.74zm185.69 86.03c0,3.07 1.04,5.42 3.11,7.04 2.07,1.62 4.72,2.02 7.95,1.2l15.89 -4.05c3.22,-0.82 5.87,-2.57 7.95,-5.25 2.07,-2.68 3.11,-5.55 3.11,-8.62l0 -133.35c0,-3.22 -1.04,-5.61 -3.11,-7.15 -2.07,-1.54 -4.72,-1.91 -7.95,-1.09l-15.89 4.05c-3.22,0.82 -5.87,2.53 -7.95,5.13 -2.07,2.6 -3.11,5.51 -3.11,8.74l0 133.35zm94.5 -13.03l15.89 -4.05c3.22,-0.82 5.87,-2.57 7.95,-5.25 2.07,-2.68 3.11,-5.55 3.11,-8.62l0 -52.51 44.91 43.6c2,1.95 4.72,3.29 8.18,4.02 3.45,0.73 6.72,0.71 9.79,-0.08l26.26 -6.69c3.07,-0.78 5.03,-2.09 5.87,-3.91 0.84,-1.83 0.27,-3.72 -1.73,-5.66l-58.04 -56.38 53.66 -80.92c1.84,-2.93 2.38,-5.1 1.61,-6.51 -0.77,-1.42 -2.76,-1.72 -5.99,-0.89l-26.02 6.63c-3.22,0.82 -6.53,2.47 -9.9,4.94 -3.38,2.47 -6.06,5.19 -8.06,8.16l-40.53 61.23 0 -48.36c0,-3.22 -1.04,-5.61 -3.11,-7.15 -2.07,-1.54 -4.72,-1.91 -7.95,-1.09l-15.89 4.05c-3.22,0.82 -5.87,2.53 -7.95,5.13 -2.07,2.6 -3.11,5.51 -3.11,8.74l0 133.35c0,3.07 1.04,5.42 3.11,7.04 2.07,1.62 4.72,2.02 7.95,1.2zm-818.09 -1538.85c-52.78,1.48 -108.7,-7.64 -146.17,18.36 -39.21,27.21 -39.59,63.85 -39.98,125.57l0.64 495.51 60.04 -9.45 1.18 -517.14c-0.12,-31.29 4.94,-48.22 34.92,-51.19 17.85,-1.77 70.7,-1.44 88.12,0.91l-0.57 570.25 63.03 30.11 0.9 -601.81 164.68 0.68c0.14,121.31 0.28,242.62 0.42,363.93 66.27,-80.76 144.79,-108.15 220.29,-116.54l0.66 -246.92 184.54 -0.71 0.15 247.62c103.32,12.14 134.51,29.3 220.62,112.94l0.46 -360.46 164.39 -0.02 0.01 601.29 61.91 -30.11 0.46 -571c144.15,2.97 124.08,-36.86 123.8,219.82l0.54 348.32 58.25 9.53 1.06 -492.12c-0.12,-67.84 3.44,-92.58 -38.99,-127.09 -34.52,-28.08 -84.8,-19.17 -144.29,-20.28 -360.35,-0.01 -720.71,-0.01 -1081.06,-0.01zm-123.29 1373.89l0.03 9.98c0.72,16.01 0.48,29.71 0.11,41.97l0.12 45.68c3.22,32.86 18.03,63.88 74.53,124.66 17.47,18.79 33.18,35.74 49.02,51.71l-0.12 -119.45c8.58,12.24 20.97,20.42 35.51,24.47 9.11,2.53 18.44,3.24 27.72,2.53l0.22 149.16c12.14,9.47 25.28,18.98 39.92,28.77 40.72,27.22 82.56,50.13 125.09,68.99l0.07 -61.34 220.75 -45.72 0.42 168.55c62,7.63 123.93,7.59 184.6,0.29l0.12 -207.18 220.79 -45.73 0.27 191.62c58.38,-26.08 113.65,-59.52 164.44,-99.72l0.01 -436.52 8.62 4.19c0.91,24.51 9.66,48.35 25.08,69.08 8.63,11.6 18.13,20.75 28.27,27.78l0.22 280.6c42.36,-41.59 80.54,-88.56 113.46,-140.53 6.25,-9.87 9.36,-21.76 10.78,-34.69l0.09 -56.42c-0.35,-10.36 -0.53,-20.58 0.05,-30.26l0.02 -11.03c10.38,-3.73 20.63,-8.23 30.58,-13.29 7.98,-4.05 16.16,-8.26 24.47,-12.48l-0.14 145.34c-1.08,4.74 -2.36,9.11 -3.86,13 -37.53,97.11 -146.44,202.73 -226.02,262.76 -361.73,272.88 -887.31,184.32 -1148.85,-164.47 -41.43,-55.25 -57.75,-84.18 -63.71,-113.31l-0.12 -144.78c13.24,6.72 26.55,13.27 40.15,19.04 5.73,2.43 11.51,4.69 17.3,6.73zm-117.9 -126.24c85.95,31.68 166.64,102.45 215.5,54.94 11.95,-11.62 21.92,-33.02 17.71,-55.81 -4.55,-24.66 -18.15,-30.98 -37.97,-41.13l-155.46 -75.19c-13.65,-9.38 -23.93,-36.83 -1.46,-49.85 22.19,-12.86 89.22,27.52 109.71,37.89 27.6,13.97 77.73,46.27 110.98,31.44 39.54,-17.64 42.35,-71.1 2.27,-96.4 -49.9,-31.49 -190.06,-77.38 -195.01,-111.58 -3.32,-22.91 14.2,-38.2 37.46,-30.72 15.64,5.03 121.94,61.41 158.75,75.47 49.07,18.74 93.53,-26.91 70.81,-67.31 -10.97,-19.5 -73.53,-45.66 -97.12,-57.73 -34.78,-17.81 -68.13,-33.97 -103.23,-51.72 -15.59,-7.88 -33.32,-22.13 -22.06,-45.58 13.28,-27.65 32.54,-12.77 52.56,-9.7 26.38,8.38 37.26,8.01 61.18,21.84 24.36,14.09 146.91,79 169.03,79.14 18.94,-2.41 34.8,-27.48 29.4,-53.41 -4.63,-22.22 -26.75,-29.59 -46.6,-39.43 -39.76,-19.71 -78.2,-36.32 -116.6,-55.5 -56.21,-28.08 -69.44,-31.86 -137.86,-18.23 -44.38,8.84 -106.81,15.25 -140.58,35.15 -60,35.34 -40.44,100.9 -52.09,120.13 -11.6,19.15 -23.22,27 -30.79,55.14 -8.58,31.87 6.91,61.62 1.64,77.34 -6.9,20.59 -19.85,28.35 -25.89,60.07 -5.78,30.34 0.36,48.91 8.09,75.56 6.67,22.96 -7.09,42.35 -15.53,61.76 -12.43,28.59 -11.28,43.68 -11.79,77.24 -0.97,114.21 76.03,198.03 145.15,236l-0.2 -239.8zm1168.08 -392.81c52.38,-14.55 19.34,-7.42 53.26,-23.88 18.57,-9.01 38.05,-18.64 55.7,-26.61l84.61 -39.03c16.88,-6.31 17.5,-0.62 35.7,-6.84 18.62,-1.25 34.36,-20.67 54.71,-4.21 20.65,16.7 9.49,36.8 -8.88,47.74 -39.46,23.48 -183.43,84.87 -203.81,106.02 -33.71,34.97 1.46,87.1 48,82.45 19.42,-1.94 129.49,-57.48 158.36,-72.32 19.74,-10.15 44.42,-14.95 53.65,6.14 16.45,37.61 -53.48,57.59 -80.05,70.76 -35.46,17.57 -71.92,33.65 -107.17,51.22 -63.28,31.54 -37.84,83.58 -18.73,97.36 36.27,26.14 79.11,-3.37 110.94,-18.95 16.6,-8.12 93.49,-48.17 106.77,-46.99 22.28,1.97 33.13,30.24 17.65,47.4 -8.18,9.07 -140.46,69.81 -156.8,77.43 -21.43,10 -33.44,14.26 -41.23,34.58 -8.65,22.56 -2.22,43.48 9.61,59.39 28.38,38.14 75.04,22.64 109.99,4.9 31.56,-16.02 76.26,-38.87 109.62,-50.39l-0.22 237.68c7.21,-5.76 21.13,-12.38 28.95,-17.83 12.53,-8.73 15.51,-11.11 26.18,-21.95 56.94,-57.84 89.22,-109.87 89.37,-210.1 -0.3,-89.28 -40.88,-83.14 -24.32,-134.7 27.85,-86.72 -21.34,-102.04 -20.56,-137.13 0.64,-28.62 14.18,-36.89 2.04,-74.25 -8.56,-26.32 -27.27,-40.58 -31.99,-54.53 -7.4,-21.87 9.63,-81.13 -56.04,-115.61 -29.38,-15.43 -97.88,-25.55 -135.91,-32.93 -72.93,-14.16 -77.01,-11.29 -137.93,16.88 -39.9,18.46 -76.97,37.84 -116.13,56.13 -85.42,39.89 -35.84,89.17 -15.34,92.18zm-727.21 66.07l-5.64 103.3c17.6,51.29 111.67,130.85 154.59,151.59 56.1,27.11 66.4,13.59 160.34,-40.3l1.14 -196.25 -189.93 -100.28 -120.5 81.94zm680.96 -0.74l5.64 103.3c-17.6,51.29 -111.67,130.85 -154.59,151.59 -56.1,27.11 -66.4,13.59 -160.34,-40.3l-1.14 -196.25 189.93 -100.28 120.5 81.94zm-688.88 -325.21l108.23 58.37c39.2,-76.32 141.94,-140.84 209.66,-137.37l0.56 -106.92 -65.55 -29.85c-45.79,-12.93 -231.24,101.9 -252.9,215.76zm697.83 0.08l-108.23 58.37c-39.2,-76.32 -141.94,-140.84 -209.66,-137.37l-0.56 -106.92 65.55 -29.85c45.79,-12.93 231.24,101.9 252.9,215.76zm-46.44 228.16l-47.09 -28.46 -1.26 -78.21c25.38,-14.12 50.77,-28.25 76.15,-42.37 0.05,75.54 3.37,60.03 -10.79,73.75 -17.24,16.92 -19.73,46.87 -17.01,75.29zm-607.9 -0.11l47.09 -28.46 1.26 -78.21c-25.38,-14.12 -50.77,-28.25 -76.15,-42.37 -0.05,75.54 -3.37,60.03 10.79,73.75 17.24,16.92 19.73,46.87 17.01,75.29zm969.14 -956.11l-34.47 29.13 10.72 43.84 -38.36 -23.78 -38.38 23.75 10.77 -43.83 -34.45 -29.17 45.01 -3.31 17.09 -41.77 17.05 41.79 45.01 3.35zm-1328.62 -1.3l34.47 29.13 -10.72 43.84 38.36 -23.78 38.38 23.75 -10.77 -43.83 34.45 -29.17 -45.01 -3.31 -17.09 -41.77 -17.05 41.79 -45.01 3.35zm1141.73 -22.94l-46.18 39.03 14.37 58.73 -51.39 -31.86 -51.42 31.81 14.42 -58.72 -46.15 -39.07 60.3 -4.43 22.9 -55.96 22.85 55.99 60.3 4.48zm-956.15 -1.3l46.18 39.03 -14.37 58.74 51.39 -31.86 51.42 31.81 -14.42 -58.72 46.15 -39.07 -60.3 -4.43 -22.9 -55.96 -22.85 55.98 -60.3 4.49zm628.86 -74.63l-82.76 69.94 25.75 105.25 -92.09 -57.1 -92.14 57.01 25.85 -105.23 -82.69 -70.01 108.06 -7.93 41.04 -100.28 40.94 100.32 108.05 8.04zm-246.28 995.11c-2.06,-1.76 -4.26,-2.64 -6.61,-2.64 -1.03,0 -2.13,0.22 -3.31,0.66l-15.86 7.49c-2.79,1.32 -4.59,3.31 -5.4,5.95 -0.81,2.64 -0.33,5.07 1.43,7.27 5.44,6.76 12.49,12.05 21.15,15.86 8.67,3.82 18.14,5.73 28.42,5.73 17.04,0 31.33,-5.03 42.86,-15.09 11.53,-10.06 17.3,-22.66 17.3,-37.79l0 -50.9c0,-14.1 -5.44,-25.93 -16.3,-35.48 -10.87,-9.55 -24.46,-14.32 -40.76,-14.32 -16.16,0 -29.64,4.74 -40.43,14.21 -10.8,9.47 -16.2,21.34 -16.2,35.59 0,14.25 5.29,26.18 15.86,35.81 10.58,9.62 23.36,14.43 38.34,14.43 10.58,0 18.66,-2.5 24.24,-7.49l0 8.59c0,5.29 -2.42,9.77 -7.27,13.44 -4.85,3.67 -11.02,5.51 -18.51,5.51 -8.08,0 -14.4,-2.28 -18.95,-6.83zm23.14 -46.71c-5.88,0 -10.72,-1.58 -14.54,-4.74 -3.82,-3.16 -5.73,-7.16 -5.73,-12.01 0,-4.7 1.91,-8.59 5.73,-11.68 3.82,-3.08 8.59,-4.63 14.32,-4.63 5.88,0 10.76,1.58 14.65,4.74 3.89,3.16 5.84,7.09 5.84,11.79 0,4.7 -1.91,8.63 -5.73,11.79 -3.82,3.16 -8.67,4.74 -14.54,4.74zm69.85 -12.56l0 45.61c0,15.42 5.58,28.28 16.75,38.56 11.16,10.28 25.12,15.42 41.86,15.42 16.89,0 30.92,-5.14 42.09,-15.42 11.16,-10.28 16.75,-23.14 16.75,-38.56l0 -45.61c0,-15.42 -5.58,-28.28 -16.75,-38.56 -11.16,-10.28 -25.19,-15.42 -42.09,-15.42 -16.75,0 -30.7,5.14 -41.86,15.42 -11.16,10.28 -16.75,23.14 -16.75,38.56zm58.61 -20.49c6.76,0 12.38,1.95 16.86,5.84 4.48,3.89 6.72,8.63 6.72,14.21l0 46.49c0,5.58 -2.24,10.28 -6.72,14.1 -4.48,3.82 -10.1,5.73 -16.86,5.73 -6.61,0 -12.19,-1.91 -16.75,-5.73 -4.55,-3.82 -6.83,-8.52 -6.83,-14.1l0 -46.49c0,-5.58 2.28,-10.32 6.83,-14.21 4.55,-3.89 10.14,-5.84 16.75,-5.84zm76.24 12.34c0.15,2.06 0.92,3.74 2.31,5.07 1.39,1.32 3.05,1.98 4.96,1.98l9.03 0c2.06,0 3.78,-0.66 5.18,-1.98 1.39,-1.32 2.17,-3.01 2.31,-5.07l1.76 -34.37c0.15,-2.5 -0.62,-4.63 -2.31,-6.39 -1.69,-1.76 -3.78,-2.64 -6.28,-2.64l-10.14 0c-2.5,0 -4.59,0.88 -6.28,2.64 -1.69,1.76 -2.46,3.89 -2.31,6.39l1.76 34.37z"/>
 </g>
</svg>
